<svg width="100%" height="100%" viewBox="0 0 64 64" fill="none" xmlns="http://www.w3.org/2000/svg">
  <rect width="64" height="64" rx="14" fill="#2a2a3e"/>
  
  <!-- Constellation Connections -->
  <path d="M32 18 L20 28 L24 44 L32 36 L40 44 L44 28 Z" stroke="#f59e0b" stroke-width="1.5" stroke-opacity="0.6" stroke-dasharray="3 3"/>
  <path d="M20 28 L32 36 L44 28" stroke="#f59e0b" stroke-width="1.5" stroke-opacity="0.6" stroke-dasharray="3 3"/>
  <path d="M32 18 L32 36" stroke="#f59e0b" stroke-width="1.5" stroke-opacity="0.6" stroke-dasharray="3 3"/>

  <!-- Book Silhouette -->
  <!-- Left page -->
  <path d="M32 24 C28 19 18 17 10 22 V48 C18 43 28 45 32 52 Z" fill="#f59e0b" fill-opacity="0.15"/>
  <path d="M32 24 C28 19 18 17 10 22 V48 C18 43 28 45 32 52" stroke="#f59e0b" stroke-width="2.5" stroke-linecap="round" stroke-linejoin="round"/>
  <!-- Right page -->
  <path d="M32 24 C36 19 46 17 54 22 V48 C46 43 36 45 32 52 Z" fill="#f59e0b" fill-opacity="0.15"/>
  <path d="M32 24 C36 19 46 17 54 22 V48 C46 43 36 45 32 52" stroke="#f59e0b" stroke-width="2.5" stroke-linecap="round" stroke-linejoin="round"/>
  <!-- Center spine -->
  <path d="M32 24 V52" stroke="#f59e0b" stroke-width="2.5" stroke-linecap="round"/>

  <!-- Constellation Nodes -->
  <circle cx="32" cy="18" r="2.5" fill="#f59e0b"/>
  <circle cx="20" cy="28" r="2" fill="#f59e0b"/>
  <circle cx="44" cy="28" r="2" fill="#f59e0b"/>
  <circle cx="24" cy="44" r="1.5" fill="#f59e0b"/>
  <circle cx="40" cy="44" r="1.5" fill="#f59e0b"/>
  <circle cx="32" cy="36" r="2" fill="#f59e0b"/>
</svg>
